<?xml version="1.0" encoding="UTF-8"?>
<svg version="1.1" xmlns="http://www.w3.org/2000/svg" width="200" height="200">
<path d="M0 0 C20.77487628 16.49936244 34.79459304 38.36047584 39.62548828 64.57568359 C41.86652125 84.72514816 40.25984458 103.91772664 32.06689453 122.54443359 C31.62474609 123.55248047 31.18259766 124.56052734 30.72705078 125.59912109 C27.09905807 133.3374989 22.41216064 139.90076064 17.06689453 146.54443359 C16.52548828 147.25212891 15.98408203 147.95982422 15.42626953 148.68896484 C1.3113998 166.18997756 -22.37728436 178.60324158 -44.41113281 181.31738281 C-73.46074488 183.93269155 -100.7081431 178.7996204 -123.69311523 160.05566406 C-143.2161562 143.48271656 -157.07338024 120.25665338 -159.93310547 94.54443359 C-161.39262466 62.70037847 -154.44553494 36.44603373 -133.24560547 11.98193359 C-99.61560396 -24.00626924 -39.68108449 -29.8785837 0 0 Z " fill="#FDFDFE" transform="translate(159.93310546875,18.45556640625)"/>
<path d="M0 0 C16.20855809 13.49625768 26.92830423 32.21374317 30.01074219 53.1640625 C30.22299751 57.39168904 30.1958496 61.61908104 30.19824219 65.8515625 C30.21048828 66.97240234 30.22273437 68.09324219 30.23535156 69.24804688 C30.26597309 86.83501153 25.60724515 107.66471848 13.26855469 121.0546875 C12.85347656 121.42078125 12.43839844 121.786875 12.01074219 122.1640625 C8.78207832 120.63983281 5.86735048 118.81177437 2.88574219 116.8515625 C-7.32937349 110.35103434 -17.43404921 106.53313697 -28.98925781 103.1640625 C-28.49425781 101.6790625 -28.49425781 101.6790625 -27.98925781 100.1640625 C-27.32925781 100.1640625 -26.66925781 100.1640625 -25.98925781 100.1640625 C-25.56966797 99.29007813 -25.56966797 99.29007813 -25.14160156 98.3984375 C-24.05750069 96.29638428 -22.85781009 94.38331266 -21.55175781 92.4140625 C-14.35841255 80.97685573 -13.42269715 67.16784753 -15.48535156 53.99609375 C-18.00807238 43.89095784 -22.97063557 34.59396214 -31.96972656 28.9140625 C-42.80766535 23.21209084 -55.69951915 22.22467859 -67.57910156 25.00390625 C-78.53662001 29.19230133 -84.99285049 35.91621125 -89.89550781 46.4296875 C-94.38767298 57.66010043 -94.02073591 74.45611228 -89.86425781 85.7265625 C-87.51286563 90.69655053 -84.53775125 94.98537214 -80.98925781 99.1640625 C-79.98215207 100.49203682 -78.98032175 101.82407368 -77.98925781 103.1640625 C-78.81425781 103.36 -79.63925781 103.5559375 -80.48925781 103.7578125 C-93.55507688 107.14092636 -105.41841328 112.63243435 -116.07128906 121.01171875 C-117.02068359 121.58212891 -117.02068359 121.58212891 -117.98925781 122.1640625 C-124.15541549 120.10867661 -127.50520923 110.9347926 -130.51660156 105.3125 C-140.41269232 84.91873242 -140.83917977 58.29239209 -133.92285156 36.859375 C-129.27946504 25.05934986 -122.80196895 15.22946787 -113.98925781 6.1640625 C-113.41433594 5.52726562 -112.83941406 4.89046875 -112.24707031 4.234375 C-84.24449536 -25.91193775 -30.688325 -24.59306183 0 0 Z " fill="#01247C" transform="translate(153.9892578125,32.8359375)"/>
<path d="M0 0 C0.91652344 0.31195313 1.83304687 0.62390625 2.77734375 0.9453125 C10.16084004 3.58782696 16.95586656 7.90500542 22 14 C22 14.99 22 15.98 22 17 C-1.51263366 29.43543654 -26.81919578 34.67647037 -53 27 C-60.97212158 24.21991302 -68.2657079 21.38118165 -74 15 C-66.92709013 4.52161501 -53.66469868 -1.21501146 -41.58154297 -3.62060547 C-27.63173733 -5.67072822 -13.17092849 -5.19669287 0 0 Z " fill="#02257D" transform="translate(126,155)"/>
</svg>
